<?xml version="1.0" standalone="no"?>
<!DOCTYPE svg PUBLIC "-//W3C//DTD SVG 20010904//EN"
 "http://www.w3.org/TR/2001/REC-SVG-20010904/DTD/svg10.dtd">
<svg version="1.0" xmlns="http://www.w3.org/2000/svg"
 width="260.000000pt" height="260.000000pt" viewBox="0 0 260.000000 260.000000"
 preserveAspectRatio="xMidYMid meet">
<metadata>
Created by potrace 1.11, written by Peter Selinger 2001-2013
</metadata>
<g transform="translate(0.000000,260.000000) scale(0.100000,-0.100000)"
fill="#000000" stroke="none">
<path d="M903 2557 l-123 -41 6 -31 c2 -16 9 -43 14 -60 9 -28 109 -399 114
-420 1 -5 8 -26 14 -46 l13 -36 122 40 c67 22 124 41 125 43 5 3 -16 91 -67
279 -23 83 -51 187 -62 233 -12 45 -24 82 -28 81 -3 0 -61 -19 -128 -42z"/>
<path d="M1235 2526 c-49 -18 -98 -37 -107 -41 -20 -8 -23 -32 -9 -67 5 -13
19 -61 32 -108 36 -139 77 -282 82 -287 3 -2 57 12 121 33 130 42 128 39 101
129 -9 27 -17 59 -19 71 -2 11 -20 82 -40 157 -20 76 -36 139 -36 142 0 11
-40 2 -125 -29z"/>
<path d="M660 2486 c-174 -73 -210 -90 -210 -98 0 -6 18 -78 41 -162 23 -83
43 -158 44 -166 2 -8 19 -70 38 -138 l34 -124 -24 -9 c-31 -12 -53 -12 -35 0
11 7 5 42 -28 182 -23 96 -44 177 -46 180 -2 4 -6 24 -10 45 -3 22 -8 41 -10
43 -4 4 -86 -12 -124 -24 -8 -2 -35 -9 -60 -15 -25 -6 -49 -15 -53 -19 -5 -5
-3 -28 3 -52 7 -24 14 -53 16 -64 7 -37 12 -60 29 -130 9 -38 18 -85 21 -103
3 -19 11 -54 19 -78 12 -41 12 -44 -9 -50 -11 -3 -28 -12 -36 -19 -8 -7 -32
-15 -53 -18 -79 -12 -178 -50 -194 -74 -35 -52 15 -234 78 -288 l29 -24 77 25
c43 13 117 35 164 49 47 13 110 33 140 44 126 46 562 172 576 167 8 -4 78 15
155 40 77 25 142 43 145 40 4 -3 4 -8 2 -10 -3 -3 -447 -139 -674 -206 -150
-44 -227 -68 -230 -72 -2 -2 26 -44 63 -94 145 -195 134 -173 127 -267 -4 -45
-8 -89 -10 -97 -1 -8 -6 -53 -10 -100 -3 -47 -8 -98 -9 -115 -2 -16 -6 -64
-10 -105 -7 -79 -13 -138 -21 -217 -2 -27 -7 -79 -10 -118 -9 -106 -16 -177
-20 -213 l-4 -32 445 0 446 0 -7 83 c-4 45 -8 84 -10 87 -2 3 -6 34 -10 70 -3
36 -8 83 -11 105 -2 22 -7 60 -9 85 -3 25 -7 61 -10 80 -3 19 -8 60 -11 90 -3
30 -7 66 -9 80 -2 14 -6 57 -10 95 -4 39 -9 78 -10 87 -2 9 -7 48 -10 85 -4
37 -8 78 -10 91 -3 15 14 44 54 95 82 104 356 460 364 474 5 7 -12 42 -39 83
-26 39 -45 73 -42 76 3 3 79 27 167 54 89 27 194 61 234 76 40 14 83 28 97 31
40 9 395 257 413 288 11 20 -7 27 -81 30 -37 1 -125 6 -197 10 -212 13 -211
13 -460 -65 -126 -39 -256 -80 -287 -91 -31 -11 -65 -22 -75 -24 -10 -2 -83
-25 -163 -50 -80 -26 -149 -47 -155 -49 -11 -3 -270 -85 -294 -93 -14 -5 -14
-4 0 12 16 16 15 23 -6 94 -12 42 -33 114 -45 161 -12 47 -26 96 -31 110 -4
14 -15 54 -24 90 -22 90 -45 160 -53 160 -4 0 -32 -11 -62 -24z"/>
</g>
</svg>
